<svg width="162" height="55" viewBox="0 0 162 55" fill="none" xmlns="http://www.w3.org/2000/svg">
<g clip-path="url(#clip0_6_89)">
<path d="M83.7473 46.5449C81.0791 46.5449 78.6961 46.0748 76.5983 45.1282C74.5005 44.1817 72.8464 42.7397 71.6358 40.7958C70.4253 38.852 69.8232 36.3872 69.8232 33.3888V32.3724H73.2393V33.3888C73.2393 36.8446 74.228 39.4046 76.1991 41.0626C78.1701 42.7206 80.6862 43.5465 83.7473 43.5465C86.8085 43.5465 89.2232 42.8223 90.8964 41.3803C92.5695 39.9382 93.4061 38.0897 93.4061 35.8472C93.4061 34.348 93.0385 33.1474 92.316 32.239C91.5872 31.3306 90.5731 30.6001 89.2739 30.0474C87.9746 29.4947 86.4726 29.0056 84.7677 28.58L81.3517 27.7224C79.3236 27.1888 77.511 26.5218 75.9138 25.715C74.3104 24.9146 73.0492 23.8601 72.1239 22.5641C71.1985 21.2619 70.7359 19.5975 70.7359 17.5647C70.7359 15.5319 71.2619 13.7659 72.3077 12.2731C73.3534 10.7739 74.8047 9.62409 76.6554 8.82367C78.506 8.02325 80.6545 7.62305 83.1072 7.62305C85.56 7.62305 87.7718 8.04866 89.7492 8.90625C91.7203 9.76384 93.2857 11.0153 94.4455 12.6733C95.599 14.3313 96.1757 16.4086 96.1757 18.8987V21.4143H92.7597V18.8987C92.7597 16.9422 92.335 15.354 91.4794 14.1407C90.6238 12.9274 89.4704 12.038 88.0127 11.4663C86.555 10.8946 84.9198 10.6087 83.1072 10.6087C80.5087 10.6087 78.3666 11.2059 76.6807 12.4001C74.9885 13.5944 74.1456 15.3159 74.1456 17.5584C74.1456 19.0576 74.4942 20.2518 75.185 21.1412C75.8758 22.0305 76.8582 22.742 78.1194 23.282C79.3806 23.8156 80.87 24.2984 82.5749 24.724L85.9909 25.5816C87.943 26.0453 89.7429 26.6615 91.378 27.4238C93.0132 28.1925 94.3314 29.2406 95.3265 30.581C96.3215 31.915 96.8222 33.6747 96.8222 35.8472C96.8222 38.0198 96.2771 39.9128 95.1934 41.5137C94.1096 43.1145 92.5886 44.3596 90.6302 45.2299C88.6718 46.1002 86.3839 46.5385 83.7473 46.5385V46.5449Z" fill="white"/>
<path d="M112.445 46.5449C110.632 46.5449 108.984 46.2336 107.508 45.6111C106.031 44.9885 104.865 44.0674 104.016 42.8541C103.16 41.6408 102.735 40.1797 102.735 38.4709C102.735 36.762 103.16 35.2819 104.016 34.1385C104.871 32.995 106.025 32.1438 107.482 31.572C108.94 31.0003 110.556 30.7145 112.337 30.7145H121.831V28.6308C121.831 26.5282 121.229 24.8892 120.018 23.714C118.808 22.5388 117.046 21.948 114.739 21.948C112.432 21.948 110.658 22.507 109.327 23.6314C107.996 24.7558 107.096 26.2614 106.633 28.148L103.54 27.2396C103.965 25.7087 104.643 24.3238 105.568 23.0978C106.494 21.8718 107.723 20.8871 109.251 20.1566C110.778 19.4261 112.61 19.064 114.745 19.064C118.016 19.064 120.551 19.9216 122.344 21.6304C124.138 23.3392 125.038 25.7277 125.038 28.796V41.4121C125.038 42.4793 125.532 43.0129 126.534 43.0129H129.043V45.7953H125.627C124.525 45.7953 123.656 45.465 123.016 44.8043C122.376 44.1437 122.053 43.248 122.053 42.1045V41.7297H121.521C121.058 42.5174 120.462 43.2797 119.733 44.0293C119.004 44.7789 118.054 45.3824 116.881 45.8461C115.709 46.3099 114.232 46.5386 112.451 46.5386L112.445 46.5449ZM112.66 43.6609C115.398 43.6609 117.61 42.835 119.302 41.177C120.988 39.519 121.837 37.175 121.837 34.1448V33.5032H112.394C110.543 33.5032 109.01 33.9034 107.78 34.7038C106.551 35.5042 105.942 36.743 105.942 38.4201C105.942 40.0971 106.57 41.3867 107.837 42.2951C109.098 43.2035 110.708 43.6609 112.667 43.6609H112.66Z" fill="white"/>
<path d="M135.115 45.8016V8.37262H138.316V45.7952H135.115V45.8016Z" fill="white"/>
<path d="M153.888 45.8016C152.5 45.8016 151.46 45.4458 150.77 44.7343C150.079 44.0229 149.73 43.0255 149.73 41.7423V22.7102H141.409V19.8198H149.73V10.0878H152.931V19.8198H162V22.7102H152.931V41.3167C152.931 42.3839 153.463 42.9175 154.528 42.9175H160.606V45.8079H153.888V45.8016Z" fill="white"/>
<path d="M9.69042 47.4786L7.17432 44.9503V9.92894L9.69042 7.14655V47.4786Z" fill="white"/>
<path d="M27.2904 34.8752H7.17432V37.3972H27.2904V34.8752Z" fill="white"/>
<path d="M27.2904 17.228H7.17432V19.75H27.2904V17.228Z" fill="white"/>
<path d="M27.9179 9.64313H7.80176V12.1651H27.9179V9.64313Z" fill="white"/>
<path d="M47.4066 42.441H27.2905V44.963H47.4066V42.441Z" fill="white"/>
<path d="M47.4066 26.0516H27.2905V28.5736H47.4066V26.0516Z" fill="white"/>
<path d="M47.4131 44.8614L44.897 47.4786V7.14655L47.4131 9.92894V44.8614Z" fill="white"/>
<path d="M28.5517 1.36578H26.0356V53.342H28.5517V1.36578Z" fill="white"/>
<path d="M37.9824 13.4483V26.0516H35.4663V13.4483H37.9824ZM39.2689 12.1587H34.186V27.3412H39.2689V12.1587Z" fill="white"/>
<path d="M34.1542 18.4922V26.0517H31.6381V18.4922H34.1542ZM35.4408 17.2026H30.3579V27.3412H35.4408V17.2026Z" fill="white"/>
<path d="M41.7851 16.6436V26.0516H39.269V16.6436H41.7851ZM43.0717 15.3604H37.9888V27.3412H43.0717V15.3604Z" fill="white"/>
<path d="M36.7212 36.7619C37.4142 36.7619 37.9761 36.1988 37.9761 35.5041C37.9761 34.8095 37.4142 34.2463 36.7212 34.2463C36.0281 34.2463 35.4663 34.8095 35.4663 35.5041C35.4663 36.1988 36.0281 36.7619 36.7212 36.7619Z" fill="white"/>
<path d="M17.8599 15.8241C18.5529 15.8241 19.1147 15.2609 19.1147 14.5663C19.1147 13.8716 18.5529 13.3085 17.8599 13.3085C17.1668 13.3085 16.605 13.8716 16.605 14.5663C16.605 15.2609 17.1668 15.8241 17.8599 15.8241Z" fill="white"/>
<path d="M19.1463 26.9028C18.785 26.9028 18.4301 26.9473 18.0942 27.0299V28.3766C18.4301 28.2686 18.7787 28.1924 19.1463 28.1924C21.0222 28.1924 22.5496 29.717 22.5496 31.6037C22.5496 33.4904 21.0286 35.015 19.1463 35.015C18.7787 35.015 18.4238 34.9388 18.0942 34.8308V36.1711H18.0625C18.4111 36.2537 18.7723 36.3045 19.1526 36.3045C21.7384 36.3045 23.8362 34.1955 23.8362 31.61C23.8362 29.0246 21.7321 26.9155 19.1526 26.9155L19.1463 26.9028Z" fill="white"/>
<path d="M16.7951 24.9336V22.1639H13.1889V24.9336C12.4093 25.499 11.8896 26.4011 11.8896 27.4429V36.1649H18.0943V27.4429C18.0943 26.4074 17.5746 25.499 16.7951 24.9336ZM16.8078 34.8753H13.1762V27.4429C13.1762 26.617 13.7276 25.931 14.4755 25.7086V23.4535H15.5085V24.3873V25.7086C16.2627 25.931 16.8141 26.6234 16.8141 27.4492V34.8817L16.8078 34.8753Z" fill="white"/>
<path d="M27.2905 2.47748C40.9991 2.47748 52.1092 13.6134 52.1092 27.3539C52.1092 41.0944 40.9991 52.2303 27.2905 52.2303C13.5819 52.2303 2.47173 41.0944 2.47173 27.3539C2.47173 13.6134 13.5819 2.47748 27.2905 2.47748ZM27.2905 0C12.2446 0 0 12.273 0 27.3539C0 42.4347 12.2446 54.7078 27.2905 54.7078C42.3364 54.7078 54.581 42.4347 54.581 27.3539C54.581 12.273 42.3427 0 27.2905 0Z" fill="white"/>
<path d="M9.69042 47.4786L7.17432 44.9503V9.92894L9.69042 7.14655V47.4786Z" fill="white"/>
<path d="M27.2904 34.8752H7.17432V37.3972H27.2904V34.8752Z" fill="white"/>
<path d="M27.2904 17.228H7.17432V19.75H27.2904V17.228Z" fill="white"/>
<path d="M27.9179 9.64313H7.80176V12.1651H27.9179V9.64313Z" fill="white"/>
<path d="M47.4066 42.441H27.2905V44.963H47.4066V42.441Z" fill="white"/>
<path d="M47.4066 26.0516H27.2905V28.5736H47.4066V26.0516Z" fill="white"/>
<path d="M47.4131 44.8614L44.897 47.4786V7.14655L47.4131 9.92894V44.8614Z" fill="white"/>
<path d="M28.5517 1.36578H26.0356V53.342H28.5517V1.36578Z" fill="white"/>
<path d="M37.9824 13.4483V26.0516H35.4663V13.4483H37.9824ZM39.2689 12.1587H34.186V27.3412H39.2689V12.1587Z" fill="white"/>
<path d="M34.1542 18.4922V26.0517H31.6381V18.4922H34.1542ZM35.4408 17.2026H30.3579V27.3412H35.4408V17.2026Z" fill="white"/>
<path d="M41.7851 16.6436V26.0516H39.269V16.6436H41.7851ZM43.0717 15.3604H37.9888V27.3412H43.0717V15.3604Z" fill="white"/>
<path d="M36.7212 36.7619C37.4142 36.7619 37.9761 36.1988 37.9761 35.5041C37.9761 34.8095 37.4142 34.2463 36.7212 34.2463C36.0281 34.2463 35.4663 34.8095 35.4663 35.5041C35.4663 36.1988 36.0281 36.7619 36.7212 36.7619Z" fill="white"/>
<path d="M17.8599 15.8241C18.5529 15.8241 19.1147 15.2609 19.1147 14.5663C19.1147 13.8716 18.5529 13.3085 17.8599 13.3085C17.1668 13.3085 16.605 13.8716 16.605 14.5663C16.605 15.2609 17.1668 15.8241 17.8599 15.8241Z" fill="white"/>
<path d="M19.1463 26.9028C18.785 26.9028 18.4301 26.9473 18.0942 27.0299V28.3766C18.4301 28.2686 18.7787 28.1924 19.1463 28.1924C21.0222 28.1924 22.5496 29.717 22.5496 31.6037C22.5496 33.4904 21.0286 35.015 19.1463 35.015C18.7787 35.015 18.4238 34.9388 18.0942 34.8308V36.1711H18.0625C18.4111 36.2537 18.7723 36.3045 19.1526 36.3045C21.7384 36.3045 23.8362 34.1955 23.8362 31.61C23.8362 29.0246 21.7321 26.9155 19.1526 26.9155L19.1463 26.9028Z" fill="white"/>
<path d="M16.7951 24.9336V22.1639H13.1889V24.9336C12.4093 25.499 11.8896 26.4011 11.8896 27.4429V36.1649H18.0943V27.4429C18.0943 26.4074 17.5746 25.499 16.7951 24.9336ZM16.8078 34.8753H13.1762V27.4429C13.1762 26.617 13.7276 25.931 14.4755 25.7086V23.4535H15.5085V24.3873V25.7086C16.2627 25.931 16.8141 26.6234 16.8141 27.4492V34.8817L16.8078 34.8753Z" fill="white"/>
<path d="M27.2905 2.47748C40.9991 2.47748 52.1092 13.6134 52.1092 27.3539C52.1092 41.0944 40.9991 52.2303 27.2905 52.2303C13.5819 52.2303 2.47173 41.0944 2.47173 27.3539C2.47173 13.6134 13.5819 2.47748 27.2905 2.47748ZM27.2905 0C12.2446 0 0 12.273 0 27.3539C0 42.4347 12.2446 54.7078 27.2905 54.7078C42.3364 54.7078 54.581 42.4347 54.581 27.3539C54.581 12.273 42.3427 0 27.2905 0Z" fill="white"/>
</g>
<defs>
<clipPath id="clip0_6_89">
<rect width="162" height="55" fill="white"/>
</clipPath>
</defs>
</svg>
